<svg width="192" height="40" viewBox="0 0 192 40" fill="none" xmlns="http://www.w3.org/2000/svg">
<path d="M19.313 18.549L17.723 22.206C15.6737 22.5947 13.7127 22.789 11.84 22.789C9.96733 22.789 8.342 22.736 6.964 22.63C6.92867 23.1247 6.911 23.8313 6.911 24.75C6.911 28.2127 7.40567 31.0747 8.395 33.336C9.41967 35.562 10.939 36.675 12.953 36.675C15.0023 36.675 16.6453 35.933 17.882 34.449C19.1187 32.9297 20.214 30.4917 21.168 27.135C21.2387 26.8523 21.3623 26.711 21.539 26.711C22.0337 26.711 22.5813 26.9583 23.182 27.453C21.5567 35.6503 17.8643 39.749 12.105 39.749C5.99233 39.749 2.83 33.8837 2.618 22.153L1.558 21.941C1.24 21.835 0.922 21.4817 0.604 20.881C0.321333 20.245 0.162333 19.7503 0.127 19.397L0.392 19.079C1.346 19.2203 2.10567 19.3087 2.671 19.344C2.84767 13.9027 3.16567 9.83933 3.625 7.154L2.353 6.836C2.035 6.624 1.77 6.28833 1.558 5.829C1.38133 5.33433 1.293 4.981 1.293 4.769C1.293 4.557 1.32833 4.451 1.399 4.451L5.162 4.769L9.031 2.119L10.409 2.967L9.773 4.822C15.1437 4.75133 19.5427 3.85033 22.97 2.119L23.871 3.497L22.122 8.055C19.6487 8.373 17.299 8.532 15.073 8.532C12.847 8.532 10.8153 8.40833 8.978 8.161C8.13 11.765 7.52933 15.5457 7.176 19.503H8.395C12.211 19.503 15.6913 18.8847 18.836 17.648L19.313 18.549ZM47.3496 4.186L45.6006 8.744C43.8693 7.82533 41.9789 7.366 39.9296 7.366C37.8803 7.366 36.2196 7.737 34.9476 8.479C33.7109 9.221 33.0926 10.387 33.0926 11.977C33.0926 13.9203 34.7179 16.1287 37.9686 18.602C39.3113 19.6267 40.6539 20.6867 41.9966 21.782C43.3393 22.842 44.4876 24.0787 45.4416 25.492C46.3956 26.87 46.8726 28.1773 46.8726 29.414C46.8726 30.6507 46.6606 31.7813 46.2366 32.806C45.8479 33.7953 45.1766 34.82 44.2226 35.88C43.2686 36.94 41.7846 37.8057 39.7706 38.477C37.7566 39.1483 35.4953 39.484 32.9866 39.484C30.4779 39.484 28.2519 39.1837 26.3086 38.583C25.9199 37.9823 25.7256 37.4523 25.7256 36.993C25.7256 36.5337 25.7433 36.304 25.7786 36.304C25.8493 36.304 26.1143 36.3747 26.5736 36.516C28.0223 36.9047 29.4709 37.099 30.9196 37.099C33.8876 37.099 36.2903 36.4983 38.1276 35.297C40.0003 34.0957 40.9366 32.5587 40.9366 30.686C40.9366 28.566 39.4173 26.287 36.3786 23.849C35.1066 22.8243 33.8346 21.7997 32.5626 20.775C29.5239 18.337 28.0046 15.952 28.0046 13.62C28.0046 12.136 28.6229 10.6873 29.8596 9.274C32.5803 6.12933 38.1099 3.974 46.4486 2.808L47.3496 4.186ZM56.5968 38.901C56.3848 39.113 55.9962 39.3073 55.4308 39.484C54.9008 39.6607 54.4768 39.749 54.1588 39.749C53.8762 39.749 53.7348 39.6783 53.7348 39.537C54.4062 34.979 54.7418 30.315 54.7418 25.545C54.7418 17.065 54.2295 9.57433 53.2048 3.073L54.5828 2.119L59.3528 4.557C59.1762 10.2457 58.8405 16.5703 58.3458 23.531C57.8512 30.4563 57.2682 35.5797 56.5968 38.901ZM84.8467 24.591L84.7937 22.895C83.769 22.7183 82.9563 22.5417 82.3557 22.365C82.1083 22.259 81.8787 21.9057 81.6667 21.305C81.4547 20.7043 81.331 20.2097 81.2957 19.821L81.4547 19.503C82.444 19.6797 83.5393 19.8033 84.7407 19.874C84.564 16.2347 84.1047 12.083 83.3627 7.419C82.8327 7.313 82.073 7.11867 81.0837 6.836C80.7657 6.624 80.5007 6.28833 80.2887 5.829C80.112 5.33433 80.0237 4.981 80.0237 4.769C80.0237 4.557 80.059 4.451 80.1297 4.451C80.801 4.52166 81.7727 4.59233 83.0447 4.663L86.7547 2.119L88.1327 2.967C88.274 3.85033 88.3623 4.46866 88.3977 4.822C93.6623 4.68066 97.9553 3.77966 101.277 2.119L102.178 3.497L100.429 8.055C97.92 8.373 95.7117 8.532 93.8037 8.532C91.8957 8.532 90.2173 8.46133 88.7687 8.32C88.8747 10.122 88.9277 11.818 88.9277 13.408C88.9277 14.9627 88.857 17.118 88.7157 19.874C92.0017 19.6973 94.9697 19.0967 97.6197 18.072L98.0967 18.973L96.4537 22.63C94.3337 23.0187 92.0723 23.213 89.6697 23.213H88.4507C88.062 27.4177 87.373 32.594 86.3837 38.742C86.1363 39.0247 85.73 39.2543 85.1647 39.431C84.6347 39.643 84.1753 39.749 83.7867 39.749C83.4333 39.749 83.2567 39.6607 83.2567 39.484L83.4157 38.901C84.3697 35.403 84.8467 30.633 84.8467 24.591ZM120.705 13.779L118.161 16.694C120.14 19.0967 121.129 22.1177 121.129 25.757C121.129 30.8803 119.486 34.82 116.2 37.576C114.469 39.0247 112.331 39.749 109.787 39.749C107.279 39.749 105.123 38.742 103.321 36.728C101.555 34.714 100.671 31.9403 100.671 28.407C100.671 24.697 102.049 21.3227 104.805 18.284C106.254 16.694 108.286 15.369 110.9 14.309C113.55 13.249 116.624 12.5777 120.122 12.295L120.705 13.779ZM110.582 34.926C112.738 34.926 114.522 34.0073 115.935 32.17C117.384 30.3327 118.108 28.4247 118.108 26.446C118.108 22.1707 117.137 18.867 115.193 16.535C112.473 16.9943 110.176 18.2133 108.303 20.192C106.431 22.1707 105.494 24.4143 105.494 26.923C105.494 29.4317 105.936 31.3927 106.819 32.806C107.738 34.2193 108.992 34.926 110.582 34.926ZM145.963 13.779L143.419 16.694C145.398 19.0967 146.387 22.1177 146.387 25.757C146.387 30.8803 144.744 34.82 141.458 37.576C139.727 39.0247 137.589 39.749 135.045 39.749C132.536 39.749 130.381 38.742 128.579 36.728C126.812 34.714 125.929 31.9403 125.929 28.407C125.929 24.697 127.307 21.3227 130.063 18.284C131.512 16.694 133.543 15.369 136.158 14.309C138.808 13.249 141.882 12.5777 145.38 12.295L145.963 13.779ZM135.84 34.926C137.995 34.926 139.78 34.0073 141.193 32.17C142.642 30.3327 143.366 28.4247 143.366 26.446C143.366 22.1707 142.394 18.867 140.451 16.535C137.73 16.9943 135.434 18.2133 133.561 20.192C131.688 22.1707 130.752 24.4143 130.752 26.923C130.752 29.4317 131.194 31.3927 132.077 32.806C132.996 34.2193 134.25 34.926 135.84 34.926ZM165.338 2.278L169.578 0.263999L170.903 1.112C169.525 5.776 168.836 11.4823 168.836 18.231C168.836 24.9443 169.631 31.9933 171.221 39.378C171.221 39.5547 171.08 39.643 170.797 39.643C169.878 39.643 169.154 39.3427 168.624 38.742C167.776 35.456 166.963 31.375 166.186 26.499C164.737 30.209 162.953 33.2477 160.833 35.615C158.713 37.9823 156.699 39.166 154.791 39.166C153.272 39.166 152.123 38.636 151.346 37.576C150.604 36.4807 150.233 34.9083 150.233 32.859C150.233 30.8097 150.675 28.6013 151.558 26.234C152.477 23.8667 154.084 21.4463 156.381 18.973C158.678 16.4643 161.504 14.468 164.861 12.984C164.826 12.1713 164.808 10.7933 164.808 8.85C164.808 6.87133 164.985 4.68067 165.338 2.278ZM165.55 21.888C165.267 19.2027 165.091 17.1887 165.02 15.846C162.794 16.8353 160.904 18.1427 159.349 19.768C156.593 22.7007 155.215 25.7393 155.215 28.884C155.215 31.4987 156.098 32.806 157.865 32.806C159.031 32.806 160.321 31.852 161.734 29.944C163.183 28.036 164.455 25.3507 165.55 21.888ZM191.572 12.984L189.876 17.701C188.251 16.641 186.643 16.111 185.053 16.111C182.438 16.111 181.131 17.118 181.131 19.132C181.131 20.51 182.226 22.1177 184.417 23.955C185.371 24.7323 186.307 25.545 187.226 26.393C189.417 28.407 190.512 30.4387 190.512 32.488C190.512 34.078 189.911 35.5973 188.71 37.046C188.039 37.8233 186.943 38.4417 185.424 38.901C183.94 39.3957 182.226 39.643 180.283 39.643C178.34 39.643 176.591 39.3957 175.036 38.901C174.859 38.7597 174.647 38.4417 174.4 37.947C174.188 37.417 174.082 37.046 174.082 36.834C174.082 36.622 174.117 36.516 174.188 36.516C174.294 36.516 174.559 36.569 174.983 36.675C176.043 36.9577 177.386 37.099 179.011 37.099C180.636 37.099 181.997 36.7457 183.092 36.039C184.223 35.3323 184.788 34.4313 184.788 33.336C184.788 32.2407 184.329 31.163 183.41 30.103C182.527 29.043 181.537 28.089 180.442 27.241C179.382 26.393 178.393 25.3507 177.474 24.114C176.591 22.842 176.149 21.57 176.149 20.298C176.149 19.1673 176.52 18.1603 177.262 17.277C178.039 16.3583 178.923 15.5987 179.912 14.998C182.315 13.5847 185.813 12.5777 190.406 11.977L191.572 12.984Z" fill="black"/>
</svg>
